PathFileType	4	(X/Y/Z)	C:\Users\86182\Documents\cortex\Trimmed_M4_H11.trc
DataRate	CameraRate	NumFrames	NumMarkers	Units	OrigDataRate	OrigDataStartFrame	OrigNumFrames
100.00	100.00	       140	2	mm	100.00	721	       901
Frame#	Time	gripper			box			
		X1	Y1	Z1	X2	Y2	Z2	

721	7.200	276.16370	151.12762	292.19708	277.97910	147.83525	155.77271	
722	7.210	276.16437	151.12830	292.19684	277.98630	147.83705	155.76740	
723	7.220	276.16522	151.12897	292.19666	277.99600	147.83841	155.76154	
724	7.230	276.16687	151.12970	292.19678	278.00632	147.83939	155.75607	
725	7.240	276.16953	151.13045	292.19757	278.01575	147.84007	155.75153	
726	7.250	276.17270	151.13101	292.19922	278.02313	147.84042	155.74835	
727	7.260	276.17572	151.13127	292.20166	278.02740	147.84038	155.74692	
728	7.270	276.17798	151.13110	292.20477	278.02786	147.83978	155.74747	
729	7.280	276.17917	151.13051	292.20807	278.02469	147.83853	155.74982	
730	7.290	276.17926	151.12959	292.21100	278.01932	147.83670	155.75317	
731	7.300	276.17825	151.12845	292.21307	278.01367	147.83455	155.75650	
732	7.310	276.17627	151.12718	292.21390	278.00906	147.83257	155.75909	
733	7.320	276.17358	151.12595	292.21323	278.00577	147.83128	155.76074	
734	7.330	276.17053	151.12483	292.21118	278.00372	147.83102	155.76147	
735	7.340	276.16736	151.12389	292.20828	278.00308	147.83156	155.76129	
736	7.350	276.16434	151.12308	292.20502	278.00409	147.83249	155.76024	
737	7.360	276.16156	151.12241	292.20178	278.00668	147.83360	155.75842	
738	7.370	276.15921	151.12192	292.19861	278.01071	147.83487	155.75601	
739	7.380	276.15738	151.12169	292.19543	278.01602	147.83614	155.75314	
740	7.390	276.15628	151.12177	292.19250	278.02194	147.83705	155.75018	
741	7.400	276.15607	151.12215	292.19019	278.02689	147.83725	155.74786	
742	7.410	276.15665	151.12270	292.18900	278.02899	147.83652	155.74706	
743	7.420	276.15784	151.12325	292.18927	278.02747	147.83476	155.74811	
744	7.430	276.15936	151.12358	292.19116	278.02283	147.83194	155.75085	
745	7.440	276.16089	151.12361	292.19452	278.01630	147.82822	155.75491	
746	7.450	276.16229	151.12334	292.19897	278.00916	147.82405	155.75986	
747	7.460	276.16367	151.12286	292.20419	278.00238	147.82019	155.76526	
748	7.470	276.16513	151.12241	292.20950	277.99637	147.81744	155.77057	
749	7.480	276.16672	151.12216	292.21408	277.99139	147.81622	155.77518	
750	7.490	276.16837	151.12230	292.21729	277.98804	147.81656	155.77835	
751	7.500	276.17004	151.12288	292.21869	277.98734	147.81827	155.77921	
752	7.510	276.17163	151.12396	292.21820	277.99033	147.82115	155.77713	
753	7.520	276.17310	151.12553	292.21600	277.99689	147.82489	155.77249	
754	7.530	276.17410	151.12741	292.21243	278.00546	147.82907	155.76633	
755	7.540	276.17416	151.12926	292.20816	278.01389	147.83350	155.75989	
756	7.550	276.17279	151.13071	292.20380	278.02014	147.83792	155.75433	
757	7.560	276.16983	151.13156	292.19986	278.02249	147.84203	155.75073	
758	7.570	276.16559	151.13181	292.19669	278.01981	147.84543	155.75003	
759	7.580	276.16086	151.13161	292.19461	278.01184	147.84776	155.75247	
760	7.590	276.15662	151.13106	292.19376	277.99960	147.84880	155.75769	
761	7.600	276.15387	151.13034	292.19415	277.98483	147.84848	155.76483	
762	7.610	276.15302	151.12959	292.19550	277.96939	147.84691	155.77299	
763	7.620	276.15384	151.12883	292.19745	277.95505	147.84438	155.78122	
764	7.630	276.15558	151.12794	292.19977	277.94348	147.84140	155.78836	
765	7.640	276.15726	151.12694	292.20215	277.93625	147.83875	155.79329	
766	7.650	276.15820	151.12589	292.20432	277.93393	147.83691	155.79541	
767	7.660	276.15851	151.12500	292.20602	277.93607	147.83609	155.79483	
768	7.670	276.15863	151.12440	292.20703	277.94153	147.83609	155.79205	
769	7.680	276.15909	151.12427	292.20724	277.94940	147.83676	155.78751	
770	7.690	276.16025	151.12459	292.20670	277.95905	147.83794	155.78149	
771	7.700	276.16180	151.12518	292.20557	277.96985	147.83934	155.77461	
772	7.710	276.16324	151.12576	292.20410	277.98068	147.84045	155.76788	
773	7.720	276.16403	151.12607	292.20273	277.99002	147.84077	155.76248	
774	7.730	276.16415	151.12601	292.20187	277.99646	147.84015	155.75916	
775	7.740	276.16373	151.12555	292.20172	277.99918	147.83875	155.75824	
776	7.750	276.16293	151.12477	292.20215	277.99805	147.83685	155.75967	
777	7.760	276.16208	151.12383	292.20294	277.99380	147.83467	155.76297	
778	7.770	276.16156	151.12297	292.20383	277.98819	147.83246	155.76718	
779	7.780	276.16180	151.12254	292.20477	277.98325	147.83072	155.77100	
780	7.790	276.16278	151.12263	292.20538	277.98044	147.82999	155.77347	
781	7.800	276.16418	151.12321	292.20529	277.98035	147.83038	155.77425	
782	7.810	276.16559	151.12407	292.20425	277.98334	147.83162	155.77328	
783	7.820	276.16660	151.12502	292.20245	277.98953	147.83328	155.77072	
784	7.830	276.16721	151.12590	292.20026	277.99829	147.83504	155.76685	
785	7.840	276.16763	151.12675	292.19800	278.00809	147.83673	155.76218	
786	7.850	276.16794	151.12753	292.19604	278.01727	147.83832	155.75723	
787	7.860	276.16812	151.12813	292.19476	278.02478	147.83960	155.75262	
788	7.870	276.16821	151.12846	292.19467	278.03040	147.84015	155.74890	
789	7.880	276.16840	151.12857	292.19604	278.03445	147.83949	155.74628	
790	7.890	276.16879	151.12845	292.19891	278.03705	147.83740	155.74493	
791	7.900	276.16919	151.12808	292.20276	278.03784	147.83398	155.74516	
792	7.910	276.16934	151.12744	292.20691	278.03644	147.82982	155.74707	
793	7.920	276.16919	151.12656	292.21057	278.03275	147.82571	155.75049	
794	7.930	276.16898	151.12566	292.21310	278.02701	147.82248	155.75485	
795	7.940	276.16898	151.12505	292.21402	278.02039	147.82065	155.75916	
796	7.950	276.16931	151.12489	292.21332	278.01486	147.82043	155.76218	
797	7.960	276.16974	151.12514	292.21130	278.01227	147.82182	155.76285	
798	7.970	276.16983	151.12552	292.20825	278.01321	147.82462	155.76089	
799	7.980	276.16940	151.12592	292.20444	278.01672	147.82845	155.75687	
800	7.990	276.16867	151.12631	292.20032	278.02060	147.83261	155.75220	
801	8.000	276.16794	151.12672	292.19647	278.02274	147.83646	155.74847	
802	8.010	276.16727	151.12709	292.19330	278.02197	147.83951	155.74673	
803	8.020	276.16644	151.12729	292.19073	278.01846	147.84137	155.74722	
804	8.030	276.16544	151.12730	292.18890	278.01285	147.84174	155.74985	
805	8.040	276.16443	151.12717	292.18793	278.00598	147.84070	155.75409	
806	8.050	276.16385	151.12703	292.18799	277.99860	147.83856	155.75934	
807	8.060	276.16382	151.12694	292.18906	277.99133	147.83554	155.76492	
808	8.070	276.16443	151.12689	292.19101	277.98508	147.83189	155.77002	
809	8.080	276.16537	151.12679	292.19354	277.98093	147.82819	155.77370	
810	8.090	276.16638	151.12660	292.19623	277.97995	147.82495	155.77521	
811	8.100	276.16739	151.12640	292.19891	277.98276	147.82237	155.77420	
812	8.110	276.16846	151.12627	292.20135	277.98914	147.82048	155.77092	
813	8.120	276.16943	151.12622	292.20340	277.99811	147.81938	155.76617	
814	8.130	276.17014	151.12622	292.20471	278.00812	147.81920	155.76096	
815	8.140	276.17035	151.12622	292.20502	278.01770	147.81993	155.75601	
816	8.150	276.17023	151.12630	292.20419	278.02582	147.82143	155.75168	
817	8.160	276.17001	151.12653	292.20258	278.03180	147.82353	155.74814	
818	8.170	276.16992	151.12689	292.20062	278.03506	147.82600	155.74570	
819	8.180	276.16992	151.12729	292.19879	278.03540	147.82848	155.74466	
820	8.190	276.16983	151.12755	292.19745	278.03305	147.83049	155.74504	
821	8.200	276.16949	151.12750	292.19684	278.02878	147.83171	155.74673	
822	8.210	276.16873	151.12711	292.19696	278.02362	147.83209	155.74948	
823	8.220	276.16763	151.12637	292.19772	278.01855	147.83185	155.75290	
824	8.230	276.16632	151.12546	292.19897	278.01462	147.83133	155.75638	
825	8.240	276.16519	151.12457	292.20044	278.01242	147.83102	155.75934	
826	8.250	276.16458	151.12399	292.20169	278.01233	147.83125	155.76117	
827	8.260	276.16461	151.12392	292.20215	278.01440	147.83211	155.76154	
828	8.270	276.16537	151.12445	292.20151	278.01859	147.83347	155.75999	
829	8.280	276.16675	151.12549	292.19986	278.02454	147.83540	155.75647	
830	8.290	276.16843	151.12677	292.19781	278.03171	147.83801	155.75128	
831	8.300	276.17017	151.12804	292.19598	278.03922	147.84111	155.74533	
832	8.310	276.17181	151.12915	292.19470	278.04575	147.84419	155.73965	
833	8.320	276.17337	151.13004	292.19421	278.05002	147.84663	155.73532	
834	8.330	276.17484	151.13066	292.19476	278.05154	147.84804	155.73303	
835	8.340	276.17596	151.13094	292.19620	278.05042	147.84821	155.73303	
836	8.350	276.17636	151.13066	292.19836	278.04694	147.84714	155.73531	
837	8.360	276.17575	151.12979	292.20099	278.04129	147.84494	155.73975	
838	8.370	276.17419	151.12839	292.20392	278.03363	147.84177	155.74606	
839	8.380	276.17191	151.12663	292.20673	278.02390	147.83791	155.75385	
840	8.390	276.16919	151.12474	292.20911	278.01233	147.83376	155.76248	
841	8.400	276.16650	151.12306	292.21069	278.00012	147.82979	155.77090	
842	8.410	276.16437	151.12192	292.21094	277.98965	147.82664	155.77777	
843	8.420	276.16312	151.12154	292.20978	277.98300	147.82501	155.78183	
844	8.430	276.16290	151.12193	292.20737	277.98080	147.82530	155.78268	
845	8.440	276.16376	151.12302	292.20428	277.98203	147.82741	155.78076	
846	8.450	276.16559	151.12459	292.20129	277.98499	147.83083	155.77719	
847	8.460	276.16809	151.12633	292.19897	277.98849	147.83472	155.77289	
848	8.470	276.17068	151.12794	292.19757	277.99207	147.83809	155.76846	
849	8.480	276.17282	151.12915	292.19696	277.99515	147.84009	155.76459	
850	8.490	276.17410	151.12981	292.19696	277.99677	147.84032	155.76208	
851	8.500	276.17438	151.12988	292.19727	277.99615	147.83888	155.76160	
852	8.510	276.17377	151.12952	292.19775	277.99344	147.83640	155.76318	
853	8.520	276.17252	151.12886	292.19812	277.99002	147.83380	155.76602	
854	8.530	276.17102	151.12816	292.19824	277.98764	147.83200	155.76889	
855	8.540	276.16953	151.12750	292.19818	277.98740	147.83138	155.77072	
856	8.550	276.16818	151.12695	292.19803	277.98947	147.83177	155.77100	
857	8.560	276.16696	151.12645	292.19788	277.99326	147.83289	155.76993	
858	8.570	276.16605	151.12607	292.19772	277.99799	147.83447	155.76782	
859	8.580	276.16574	151.12590	292.19757	278.00342	147.83649	155.76480	
860	8.590	276.16623	151.12610	292.19745	278.00934	147.83891	155.76102	
